{
	"asset":{
		"generator":"Khronos glTF Blender I/O v3.5.30",
		"version":"2.0"
	},
	"scene":0,
	"scenes":[
		{
			"name":"Scene",
			"nodes":[
				0,
				1,
				2,
				3,
				4,
				5,
				6,
				7,
				8,
				9,
				10
			]
		}
	],
	"nodes":[
		{
			"mesh":0,
			"name":"\u0426\u0438\u043b\u0438\u043d\u0434\u0440",
			"rotation":[
				0,
				0.7034820318222046,
				0,
				0.7107130885124207
			],
			"scale":[
				0.2783774137496948,
				0.2783774137496948,
				0.2783774137496948
			],
			"translation":[
				0.0012496658600866795,
				-0.15940622985363007,
				0.0008238523150794208
			]
		},
		{
			"mesh":1,
			"name":"\u0426\u0438\u043b\u0438\u043d\u0434\u0440.001",
			"rotation":[
				0,
				0.7034820318222046,
				0,
				0.7107130885124207
			],
			"scale":[
				0.15661856532096863,
				0.15661856532096863,
				0.15661856532096863
			],
			"translation":[
				0.0012496658600866795,
				-0.7756447196006775,
				0.0008238523150794208
			]
		},
		{
			"mesh":2,
			"name":"\u0421\u0444\u0435\u0440\u0430",
			"rotation":[
				0,
				0.7034820318222046,
				0,
				0.7107130885124207
			],
			"scale":[
				0.2783774137496948,
				0.2783774137496948,
				0.2783774137496948
			],
			"translation":[
				0.0012496658600866795,
				-2.9124596118927,
				0.0008238523150794208
			]
		},
		{
			"mesh":3,
			"name":"\u0426\u0438\u043b\u0438\u043d\u0434\u0440.002",
			"rotation":[
				0,
				0.7034820318222046,
				0,
				0.7107130885124207
			],
			"scale":[
				0.2783774137496948,
				0.2783774137496948,
				0.2783774137496948
			],
			"translation":[
				0.0012496658600866795,
				-2.9124596118927,
				0.0008238523150794208
			]
		},
		{
			"mesh":4,
			"name":"\u0421\u0444\u0435\u0440\u0430.001",
			"rotation":[
				0,
				0.7034820318222046,
				0,
				0.7107130289077759
			],
			"scale":[
				0.06373704969882965,
				0.06373705714941025,
				0.06373704969882965
			],
			"translation":[
				0.00121517782099545,
				2.9589011669158936,
				0.00029473050381056964
			]
		},
		{
			"mesh":5,
			"name":"\u0426\u0438\u043b\u0438\u043d\u0434\u0440.003",
			"rotation":[
				0,
				0.7034820318222046,
				0,
				0.7107130289077759
			],
			"scale":[
				0.09819298982620239,
				0.4485507607460022,
				0.09819298982620239
			],
			"translation":[
				-0.002698943018913269,
				0.12216326594352722,
				0.3749483525753021
			]
		},
		{
			"mesh":6,
			"name":"\u0426\u0438\u043b\u0438\u043d\u0434\u0440.004",
			"rotation":[
				0,
				0.7034820318222046,
				0,
				0.7107130289077759
			],
			"scale":[
				0.09819298982620239,
				0.4485507607460022,
				0.09819298982620239
			],
			"translation":[
				0.004986615851521492,
				0.12216326594352722,
				-0.3765889108181
			]
		},
		{
			"mesh":7,
			"name":"\u0421\u0444\u0435\u0440\u0430.003",
			"rotation":[
				0,
				0.7034820318222046,
				0,
				0.7107130885124207
			],
			"scale":[
				0.06918877363204956,
				0.1206088662147522,
				0.06918877363204956
			],
			"translation":[
				0.00501600094139576,
				-0.4667220115661621,
				-0.379460871219635
			]
		},
		{
			"mesh":8,
			"name":"\u0421\u0444\u0435\u0440\u0430.006",
			"rotation":[
				0,
				0.7034820318222046,
				0,
				0.7107130885124207
			],
			"scale":[
				0.06918877363204956,
				0.1206088662147522,
				0.06918877363204956
			],
			"translation":[
				-0.0026943814009428024,
				-0.4667220115661621,
				0.37450110912323
			]
		},
		{
			"mesh":9,
			"name":"\u0426\u0438\u043b\u0438\u043d\u0434\u0440.012",
			"rotation":[
				0,
				0.7034820318222046,
				0,
				0.7107130885124207
			],
			"scale":[
				0.2991614043712616,
				0.04566530883312225,
				0.2991614043712616
			],
			"translation":[
				0.0011251866817474365,
				2.343953847885132,
				0.0010035597952082753
			]
		},
		{
			"mesh":10,
			"name":"\u0426\u0438\u043b\u0438\u043d\u0434\u0440.013",
			"rotation":[
				0,
				0.7034820318222046,
				0,
				0.7107130289077759
			],
			"scale":[
				0.30653953552246094,
				0.051367904990911484,
				0.30653953552246094
			],
			"translation":[
				0.0011251866817474365,
				1.02615487575531,
				0.0010035597952082753
			]
		}
	],
	"materials":[
		{
			"doubleSided":true,
			"name":"\u041c\u0430\u0442\u0435\u0440\u0438\u0430\u043b.003",
			"pbrMetallicRoughness":{
				"baseColorFactor":[
					0.3588399887084961,
					0.3588399887084961,
					0.3588399887084961,
					1
				],
				"metallicFactor":0,
				"roughnessFactor":0
			}
		},
		{
			"doubleSided":true,
			"name":"\u041c\u0430\u0442\u0435\u0440\u0438\u0430\u043b.002",
			"pbrMetallicRoughness":{
				"baseColorFactor":[
					0.03137769550085068,
					0.031274378299713135,
					0.03310263156890869,
					1
				],
				"metallicFactor":0,
				"roughnessFactor":0.5
			}
		},
		{
			"doubleSided":true,
			"name":"\u041c\u0430\u0442\u0435\u0440\u0438\u0430\u043b.001",
			"pbrMetallicRoughness":{
				"baseColorFactor":[
					0.37574905157089233,
					0.3602677583694458,
					0.37184301018714905,
					1
				],
				"metallicFactor":0,
				"roughnessFactor":0.5
			}
		},
		{
			"doubleSided":true,
			"name":"\u041c\u0430\u0442\u0435\u0440\u0438\u0430\u043b.006",
			"pbrMetallicRoughness":{
				"baseColorFactor":[
					0.03137769550085068,
					0.031274378299713135,
					0.03310263156890869,
					1
				],
				"metallicFactor":0,
				"roughnessFactor":0.5
			}
		},
		{
			"doubleSided":true,
			"name":"\u041c\u0430\u0442\u0435\u0440\u0438\u0430\u043b.008",
			"pbrMetallicRoughness":{
				"baseColorFactor":[
					0.03137769550085068,
					0.031274378299713135,
					0.03310263156890869,
					1
				],
				"metallicFactor":0,
				"roughnessFactor":0.5
			}
		},
		{
			"doubleSided":true,
			"name":"\u041c\u0430\u0442\u0435\u0440\u0438\u0430\u043b.010",
			"pbrMetallicRoughness":{
				"baseColorFactor":[
					0,
					0,
					0,
					1
				],
				"metallicFactor":0,
				"roughnessFactor":0.5
			}
		},
		{
			"doubleSided":true,
			"name":"\u041c\u0430\u0442\u0435\u0440\u0438\u0430\u043b.011",
			"pbrMetallicRoughness":{
				"baseColorFactor":[
					0,
					0,
					0,
					1
				],
				"metallicFactor":0,
				"roughnessFactor":0.5
			}
		}
	],
	"meshes":[
		{
			"name":"\u0426\u0438\u043b\u0438\u043d\u0434\u0440",
			"primitives":[
				{
					"attributes":{
						"POSITION":0,
						"TEXCOORD_0":1,
						"NORMAL":2
					},
					"indices":3
				}
			]
		},
		{
			"name":"\u0426\u0438\u043b\u0438\u043d\u0434\u0440.001",
			"primitives":[
				{
					"attributes":{
						"POSITION":4,
						"TEXCOORD_0":5,
						"NORMAL":6
					},
					"indices":7,
					"material":0
				}
			]
		},
		{
			"name":"\u0421\u0444\u0435\u0440\u0430",
			"primitives":[
				{
					"attributes":{
						"POSITION":8,
						"TEXCOORD_0":9,
						"NORMAL":10
					},
					"indices":11,
					"material":1
				}
			]
		},
		{
			"name":"\u0426\u0438\u043b\u0438\u043d\u0434\u0440.002",
			"primitives":[
				{
					"attributes":{
						"POSITION":12,
						"TEXCOORD_0":13,
						"NORMAL":14
					},
					"indices":15,
					"material":2
				}
			]
		},
		{
			"name":"\u0421\u0444\u0435\u0440\u0430.001",
			"primitives":[
				{
					"attributes":{
						"POSITION":16,
						"TEXCOORD_0":17,
						"NORMAL":18
					},
					"indices":19
				}
			]
		},
		{
			"name":"\u0426\u0438\u043b\u0438\u043d\u0434\u0440.003",
			"primitives":[
				{
					"attributes":{
						"POSITION":20,
						"TEXCOORD_0":21,
						"NORMAL":22
					},
					"indices":23
				}
			]
		},
		{
			"name":"\u0426\u0438\u043b\u0438\u043d\u0434\u0440.004",
			"primitives":[
				{
					"attributes":{
						"POSITION":24,
						"TEXCOORD_0":25,
						"NORMAL":26
					},
					"indices":27
				}
			]
		},
		{
			"name":"\u0421\u0444\u0435\u0440\u0430.003",
			"primitives":[
				{
					"attributes":{
						"POSITION":28,
						"TEXCOORD_0":29,
						"NORMAL":30
					},
					"indices":31,
					"material":3
				}
			]
		},
		{
			"name":"\u0421\u0444\u0435\u0440\u0430.006",
			"primitives":[
				{
					"attributes":{
						"POSITION":32,
						"TEXCOORD_0":33,
						"NORMAL":34
					},
					"indices":31,
					"material":4
				}
			]
		},
		{
			"name":"\u0426\u0438\u043b\u0438\u043d\u0434\u0440.012",
			"primitives":[
				{
					"attributes":{
						"POSITION":35,
						"TEXCOORD_0":36,
						"NORMAL":37
					},
					"indices":38,
					"material":5
				}
			]
		},
		{
			"name":"\u0426\u0438\u043b\u0438\u043d\u0434\u0440.013",
			"primitives":[
				{
					"attributes":{
						"POSITION":39,
						"TEXCOORD_0":40,
						"NORMAL":41
					},
					"indices":38,
					"material":6
				}
			]
		}
	],
	"accessors":[
		{
			"bufferView":0,
			"componentType":5126,
			"count":1038,
			"max":[
				1,
				11.259866714477539,
				1
			],
			"min":[
				-1.0000005960464478,
				-1.4041086435317993,
				-1
			],
			"type":"VEC3"
		},
		{
			"bufferView":1,
			"componentType":5126,
			"count":1038,
			"type":"VEC2"
		},
		{
			"bufferView":2,
			"componentType":5126,
			"count":1038,
			"type":"VEC3"
		},
		{
			"bufferView":3,
			"componentType":5123,
			"count":1716,
			"type":"SCALAR"
		},
		{
			"bufferView":4,
			"componentType":5126,
			"count":678,
			"max":[
				0.778745174407959,
				2.094923973083496,
				0.7787450551986694
			],
			"min":[
				-0.778745174407959,
				-0.3375903367996216,
				-0.7787452340126038
			],
			"type":"VEC3"
		},
		{
			"bufferView":5,
			"componentType":5126,
			"count":678,
			"type":"VEC2"
		},
		{
			"bufferView":6,
			"componentType":5126,
			"count":678,
			"type":"VEC3"
		},
		{
			"bufferView":7,
			"componentType":5123,
			"count":1140,
			"type":"SCALAR"
		},
		{
			"bufferView":8,
			"componentType":5126,
			"count":1308,
			"max":[
				0.5525432229042053,
				7.621939182281494,
				0.5759673714637756
			],
			"min":[
				-0.5525429844856262,
				6.570363521575928,
				-0.5759670734405518
			],
			"type":"VEC3"
		},
		{
			"bufferView":9,
			"componentType":5126,
			"count":1308,
			"type":"VEC2"
		},
		{
			"bufferView":10,
			"componentType":5126,
			"count":1308,
			"type":"VEC3"
		},
		{
			"bufferView":11,
			"componentType":5123,
			"count":1914,
			"type":"SCALAR"
		},
		{
			"bufferView":12,
			"componentType":5126,
			"count":2879,
			"max":[
				0.8581668138504028,
				8.605620384216309,
				0.15317940711975098
			],
			"min":[
				0.419946551322937,
				7.009476661682129,
				-0.15317994356155396
			],
			"type":"VEC3"
		},
		{
			"bufferView":13,
			"componentType":5126,
			"count":2879,
			"type":"VEC2"
		},
		{
			"bufferView":14,
			"componentType":5126,
			"count":2879,
			"type":"VEC3"
		},
		{
			"bufferView":15,
			"componentType":5123,
			"count":4392,
			"type":"SCALAR"
		},
		{
			"bufferView":16,
			"componentType":5126,
			"count":2026,
			"max":[
				1.000000238418579,
				1,
				1.0000003576278687
			],
			"min":[
				-0.9999998211860657,
				-1,
				-1
			],
			"type":"VEC3"
		},
		{
			"bufferView":17,
			"componentType":5126,
			"count":2026,
			"type":"VEC2"
		},
		{
			"bufferView":18,
			"componentType":5126,
			"count":2026,
			"type":"VEC3"
		},
		{
			"bufferView":19,
			"componentType":5123,
			"count":2880,
			"type":"SCALAR"
		},
		{
			"bufferView":20,
			"componentType":5126,
			"count":1348,
			"max":[
				1.0000001192092896,
				1.6688206195831299,
				1
			],
			"min":[
				-1,
				-1.1089969873428345,
				-1
			],
			"type":"VEC3"
		},
		{
			"bufferView":21,
			"componentType":5126,
			"count":1348,
			"type":"VEC2"
		},
		{
			"bufferView":22,
			"componentType":5126,
			"count":1348,
			"type":"VEC3"
		},
		{
			"bufferView":23,
			"componentType":5123,
			"count":2100,
			"type":"SCALAR"
		},
		{
			"bufferView":24,
			"componentType":5126,
			"count":1348,
			"max":[
				1.0000001192092896,
				1.6688206195831299,
				1
			],
			"min":[
				-1,
				-1.1089969873428345,
				-1
			],
			"type":"VEC3"
		},
		{
			"bufferView":25,
			"componentType":5126,
			"count":1348,
			"type":"VEC2"
		},
		{
			"bufferView":26,
			"componentType":5126,
			"count":1348,
			"type":"VEC3"
		},
		{
			"bufferView":27,
			"componentType":5123,
			"count":2100,
			"type":"SCALAR"
		},
		{
			"bufferView":28,
			"componentType":5126,
			"count":1220,
			"max":[
				0.9807852506637573,
				1.0409431457519531,
				0.9807853698730469
			],
			"min":[
				-0.9807848334312439,
				0.19509035348892212,
				-0.9807852506637573
			],
			"type":"VEC3"
		},
		{
			"bufferView":29,
			"componentType":5126,
			"count":1220,
			"type":"VEC2"
		},
		{
			"bufferView":30,
			"componentType":5126,
			"count":1220,
			"type":"VEC3"
		},
		{
			"bufferView":31,
			"componentType":5123,
			"count":1914,
			"type":"SCALAR"
		},
		{
			"bufferView":32,
			"componentType":5126,
			"count":1220,
			"max":[
				0.9807852506637573,
				1.0409431457519531,
				0.9807853698730469
			],
			"min":[
				-0.9807848334312439,
				0.19509035348892212,
				-0.9807852506637573
			],
			"type":"VEC3"
		},
		{
			"bufferView":33,
			"componentType":5126,
			"count":1220,
			"type":"VEC2"
		},
		{
			"bufferView":34,
			"componentType":5126,
			"count":1220,
			"type":"VEC3"
		},
		{
			"bufferView":35,
			"componentType":5126,
			"count":192,
			"max":[
				1,
				1,
				1
			],
			"min":[
				-1,
				-1,
				-1
			],
			"type":"VEC3"
		},
		{
			"bufferView":36,
			"componentType":5126,
			"count":192,
			"type":"VEC2"
		},
		{
			"bufferView":37,
			"componentType":5126,
			"count":192,
			"type":"VEC3"
		},
		{
			"bufferView":38,
			"componentType":5123,
			"count":372,
			"type":"SCALAR"
		},
		{
			"bufferView":39,
			"componentType":5126,
			"count":192,
			"max":[
				1,
				1,
				1
			],
			"min":[
				-1,
				-1,
				-1
			],
			"type":"VEC3"
		},
		{
			"bufferView":40,
			"componentType":5126,
			"count":192,
			"type":"VEC2"
		},
		{
			"bufferView":41,
			"componentType":5126,
			"count":192,
			"type":"VEC3"
		}
	],
	"bufferViews":[
		{
			"buffer":0,
			"byteLength":12456,
			"byteOffset":0,
			"target":34962
		},
		{
			"buffer":0,
			"byteLength":8304,
			"byteOffset":12456,
			"target":34962
		},
		{
			"buffer":0,
			"byteLength":12456,
			"byteOffset":20760,
			"target":34962
		},
		{
			"buffer":0,
			"byteLength":3432,
			"byteOffset":33216,
			"target":34963
		},
		{
			"buffer":0,
			"byteLength":8136,
			"byteOffset":36648,
			"target":34962
		},
		{
			"buffer":0,
			"byteLength":5424,
			"byteOffset":44784,
			"target":34962
		},
		{
			"buffer":0,
			"byteLength":8136,
			"byteOffset":50208,
			"target":34962
		},
		{
			"buffer":0,
			"byteLength":2280,
			"byteOffset":58344,
			"target":34963
		},
		{
			"buffer":0,
			"byteLength":15696,
			"byteOffset":60624,
			"target":34962
		},
		{
			"buffer":0,
			"byteLength":10464,
			"byteOffset":76320,
			"target":34962
		},
		{
			"buffer":0,
			"byteLength":15696,
			"byteOffset":86784,
			"target":34962
		},
		{
			"buffer":0,
			"byteLength":3828,
			"byteOffset":102480,
			"target":34963
		},
		{
			"buffer":0,
			"byteLength":34548,
			"byteOffset":106308,
			"target":34962
		},
		{
			"buffer":0,
			"byteLength":23032,
			"byteOffset":140856,
			"target":34962
		},
		{
			"buffer":0,
			"byteLength":34548,
			"byteOffset":163888,
			"target":34962
		},
		{
			"buffer":0,
			"byteLength":8784,
			"byteOffset":198436,
			"target":34963
		},
		{
			"buffer":0,
			"byteLength":24312,
			"byteOffset":207220,
			"target":34962
		},
		{
			"buffer":0,
			"byteLength":16208,
			"byteOffset":231532,
			"target":34962
		},
		{
			"buffer":0,
			"byteLength":24312,
			"byteOffset":247740,
			"target":34962
		},
		{
			"buffer":0,
			"byteLength":5760,
			"byteOffset":272052,
			"target":34963
		},
		{
			"buffer":0,
			"byteLength":16176,
			"byteOffset":277812,
			"target":34962
		},
		{
			"buffer":0,
			"byteLength":10784,
			"byteOffset":293988,
			"target":34962
		},
		{
			"buffer":0,
			"byteLength":16176,
			"byteOffset":304772,
			"target":34962
		},
		{
			"buffer":0,
			"byteLength":4200,
			"byteOffset":320948,
			"target":34963
		},
		{
			"buffer":0,
			"byteLength":16176,
			"byteOffset":325148,
			"target":34962
		},
		{
			"buffer":0,
			"byteLength":10784,
			"byteOffset":341324,
			"target":34962
		},
		{
			"buffer":0,
			"byteLength":16176,
			"byteOffset":352108,
			"target":34962
		},
		{
			"buffer":0,
			"byteLength":4200,
			"byteOffset":368284,
			"target":34963
		},
		{
			"buffer":0,
			"byteLength":14640,
			"byteOffset":372484,
			"target":34962
		},
		{
			"buffer":0,
			"byteLength":9760,
			"byteOffset":387124,
			"target":34962
		},
		{
			"buffer":0,
			"byteLength":14640,
			"byteOffset":396884,
			"target":34962
		},
		{
			"buffer":0,
			"byteLength":3828,
			"byteOffset":411524,
			"target":34963
		},
		{
			"buffer":0,
			"byteLength":14640,
			"byteOffset":415352,
			"target":34962
		},
		{
			"buffer":0,
			"byteLength":9760,
			"byteOffset":429992,
			"target":34962
		},
		{
			"buffer":0,
			"byteLength":14640,
			"byteOffset":439752,
			"target":34962
		},
		{
			"buffer":0,
			"byteLength":2304,
			"byteOffset":454392,
			"target":34962
		},
		{
			"buffer":0,
			"byteLength":1536,
			"byteOffset":456696,
			"target":34962
		},
		{
			"buffer":0,
			"byteLength":2304,
			"byteOffset":458232,
			"target":34962
		},
		{
			"buffer":0,
			"byteLength":744,
			"byteOffset":460536,
			"target":34963
		},
		{
			"buffer":0,
			"byteLength":2304,
			"byteOffset":461280,
			"target":34962
		},
		{
			"buffer":0,
			"byteLength":1536,
			"byteOffset":463584,
			"target":34962
		},
		{
			"buffer":0,
			"byteLength":2304,
			"byteOffset":465120,
			"target":34962
		}
	],
	"buffers":[
		{
			"byteLength":467424,
			"uri":"rocket.bin"
		}
	]
}
